<svg id="Layer_1" data-name="Layer 1" xmlns="http://www.w3.org/2000/svg" xmlns:xlink="http://www.w3.org/1999/xlink" viewBox="0 0 655.3 108.42"><defs><style>.cls-1,.cls-3{fill:none;}.cls-2{clip-path:url(#clip-path);}.cls-3{stroke:#00aeef;stroke-miterlimit:10;stroke-width:5px;}.cls-4{fill:#00aeef;}</style><clipPath id="clip-path" transform="translate(0 0)"><rect class="cls-1" width="655.3" height="108.42"/></clipPath></defs><title>Icon3</title><g class="cls-2"><path class="cls-3" d="M0,103.85H5.93M0,99.3H5.93m8.22,2.28H646.82a5.87,5.87,0,1,0,0-11.73h-7a16.33,16.33,0,0,1-16.5-16.15l-.2-2.94v-48a5.34,5.34,0,0,0-5.35-5.33h-.55M603.4,25.13a4.16,4.16,0,0,0,4-3.13l.73-2.93c1.25-4.94-5.35-9.38-14-9.38s-15.21,4.44-14,9.38L581,22a4.16,4.16,0,0,0,4,3.13ZM579,78.38h30.46a4.24,4.24,0,0,0,4.23-4l4.15-65.55a6,6,0,0,0-6-6.37H576.59a6,6,0,0,0-6,6.37l4.15,65.55A4.24,4.24,0,0,0,579,78.38Z" transform="translate(0 0)"/><path class="cls-4" d="M13.85,103.9v-1.21a4.53,4.53,0,0,0-4.52-4.53H6.14a.77.77,0,0,0-.77.77v8.72a.76.76,0,0,0,.77.77H9.33a4.52,4.52,0,0,0,4.52-4.52" transform="translate(0 0)"/></g><polygon class="cls-4" points="604.17 47.58 596.88 46.57 599.54 32.79 587.49 50.01 594.77 51.02 592.16 64.47 604.17 47.58"/></svg>