<svg id="Layer_1" data-name="Layer 1" xmlns="http://www.w3.org/2000/svg" xmlns:xlink="http://www.w3.org/1999/xlink" viewBox="0 0 660.26 129.59"><defs><style>.cls-1,.cls-4{fill:none;}.cls-2{clip-path:url(#clip-path);}.cls-3{fill:#00aeef;}.cls-4{stroke:#00aeef;stroke-miterlimit:10;stroke-width:5px;}</style><clipPath id="clip-path" transform="translate(0 0)"><rect class="cls-1" width="660.27" height="129.59"/></clipPath></defs><title>Icon5</title><g class="cls-2"><path class="cls-3" d="M13.85,125.06v-1.21a4.53,4.53,0,0,0-4.52-4.52H6.14a.77.77,0,0,0-.77.77v8.72a.77.77,0,0,0,.77.77H9.33a4.53,4.53,0,0,0,4.52-4.53" transform="translate(0 0)"/><path class="cls-4" d="M0,125H5.93M0,119.47H5.93M623.17,91.92l.2,2.94A16.33,16.33,0,0,0,639.87,111h7a5.86,5.86,0,1,1,0,11.72H14.15" transform="translate(0 0)"/><path class="cls-4" d="M606.65,62.52h-13c-5,0-8.23,4.4-6,8.17a6.94,6.94,0,0,0,6,3.17h13M570,82.14H582.4m24.25,0H582.4v5.29a6.24,6.24,0,0,1-6.12,6.21,6,6,0,0,1-4.41-1.78A6.39,6.39,0,0,1,570,87.32V82.14h-3.14A3.1,3.1,0,0,1,563.7,79V55a9.32,9.32,0,0,1,9.31-9.3,1,1,0,0,0,.93-.61l8-18.22A11.51,11.51,0,0,1,592.48,20h14.17m0,5.2H592.48A6.29,6.29,0,0,0,586.7,29l-7.34,16.74h27.29m8.63,47.93h36.89a5.6,5.6,0,0,0,5.6-5.59V16a5.6,5.6,0,0,0-5.6-5.59H615.28A5.59,5.59,0,0,0,609.69,16v72.1A5.59,5.59,0,0,0,615.28,93.65Zm28.13-83.28V5.45a3,3,0,0,0-2.95-2.95H627a3,3,0,0,0-3,3v4.92M576.26,65.11a5.7,5.7,0,1,1,5.62-5.7A5.68,5.68,0,0,1,576.26,65.11Z" transform="translate(0 0)"/></g><polygon class="cls-3" points="645.05 50.84 635.87 49.56 639.22 32.23 624.06 53.89 633.22 55.16 629.94 72.09 645.05 50.84"/></svg>