<svg id="Layer_1" data-name="Layer 1" xmlns="http://www.w3.org/2000/svg" xmlns:xlink="http://www.w3.org/1999/xlink" viewBox="0 0 698.25 83.19"><defs><style>.cls-1,.cls-3{fill:none;}.cls-2{clip-path:url(#clip-path);}.cls-3{stroke:#00aeef;stroke-miterlimit:10;stroke-width:5px;}.cls-4{fill:#00aeef;}</style><clipPath id="clip-path" transform="translate(0 0)"><rect class="cls-1" width="698.25" height="83.19"/></clipPath></defs><title>Icon2</title><g class="cls-2"><path class="cls-3" d="M0,78.15H7.29M0,71.51H7.29m587-30.75h0a20.15,20.15,0,0,0,20.29,20h45.54a7.27,7.27,0,1,1,0,14.54H17.4M682,39a10.14,10.14,0,1,1-10.14-10A10.07,10.07,0,0,1,682,39Zm-59.85,0A10.15,10.15,0,1,1,612,29,10.07,10.07,0,0,1,622.14,39ZM682,38.26h9.56a4.2,4.2,0,0,0,4.23-4.17V29.27a9.84,9.84,0,0,0-8.14-9.64l-22-3.94a5.46,5.46,0,0,1-2.89-1.52,49,49,0,0,0-8.26-6.66,50.22,50.22,0,0,0-7.67-4,12.51,12.51,0,0,0-4.84-1H627.22a16.62,16.62,0,0,0-8.15,2.14l-14.6,8.24a8.27,8.27,0,0,1-4.07,1.06h-7.19a2.13,2.13,0,0,0-2.13,2.27c.19,2.6.63,5,.63,7.75a12.75,12.75,0,0,0-2.89,6.44A12.59,12.59,0,0,0,589,35a4.26,4.26,0,0,0,4.18,3.23h8.67m20.23,0h39.62" transform="translate(0 0)"/><path class="cls-4" d="M16.61,77.63V76.14a5.55,5.55,0,0,0-5.55-5.55H7.14a1,1,0,0,0-.95,1v10.7a1,1,0,0,0,.95,1h3.92a5.55,5.55,0,0,0,5.55-5.56" transform="translate(0 0)"/></g></svg>